<svg width="668" height="432" viewBox="0 0 668 432" fill="none" xmlns="http://www.w3.org/2000/svg">
<g opacity="0.66" clip-path="url(#clip0_9_2)">
<path d="M2486.16 -1917.57H-11.9688V473.107H2486.16V-1917.57Z" fill="#F4F1ED"/>
<path d="M519.646 46.372H132.163C128.083 46.372 124.776 49.6817 124.776 53.7643V348.664C124.776 352.747 128.083 356.056 132.163 356.056H519.646C523.726 356.056 527.033 352.747 527.033 348.664V53.7643C527.033 49.6817 523.726 46.372 519.646 46.372Z" fill="#F4F1ED" stroke="#070707" stroke-width="6" stroke-linecap="round" stroke-linejoin="round"/>
<path d="M124.776 69.5759H527.033" stroke="#070707" stroke-width="6" stroke-linecap="round" stroke-linejoin="round"/>
<path d="M174.95 55.9277H171.479C170.326 55.9277 169.391 56.8632 169.391 58.0173V61.4904C169.391 62.6444 170.326 63.58 171.479 63.58H174.95C176.103 63.58 177.038 62.6444 177.038 61.4904V58.0173C177.038 56.8632 176.103 55.9277 174.95 55.9277Z" fill="#1C0E0C"/>
<path d="M161.907 55.9277H158.436C157.283 55.9277 156.348 56.8632 156.348 58.0173V61.4904C156.348 62.6444 157.283 63.58 158.436 63.58H161.907C163.06 63.58 163.995 62.6444 163.995 61.4904V58.0173C163.995 56.8632 163.06 55.9277 161.907 55.9277Z" fill="#1C0E0C"/>
<path d="M148.861 55.9277H145.39C144.237 55.9277 143.302 56.8632 143.302 58.0173V61.4904C143.302 62.6444 144.237 63.58 145.39 63.58H148.861C150.014 63.58 150.949 62.6444 150.949 61.4904V58.0173C150.949 56.8632 150.014 55.9277 148.861 55.9277Z" fill="#1C0E0C"/>
<path d="M173.374 54.5262H169.903C168.75 54.5262 167.815 55.4618 167.815 56.6158V60.0889C167.815 61.243 168.75 62.1785 169.903 62.1785H173.374C174.527 62.1785 175.462 61.243 175.462 60.0889V56.6158C175.462 55.4618 174.527 54.5262 173.374 54.5262Z" fill="#C5DCDD" stroke="black" stroke-width="6" stroke-linecap="round" stroke-linejoin="round"/>
<path d="M160.328 54.5262H156.857C155.704 54.5262 154.769 55.4618 154.769 56.6158V60.0889C154.769 61.243 155.704 62.1785 156.857 62.1785H160.328C161.481 62.1785 162.416 61.243 162.416 60.0889V56.6158C162.416 55.4618 161.481 54.5262 160.328 54.5262Z" fill="#FFBF00" stroke="black" stroke-width="6" stroke-linecap="round" stroke-linejoin="round"/>
<path d="M147.285 54.5262H143.814C142.66 54.5262 141.725 55.4618 141.725 56.6158V60.0889C141.725 61.243 142.66 62.1785 143.814 62.1785H147.285C148.438 62.1785 149.373 61.243 149.373 60.0889V56.6158C149.373 55.4618 148.438 54.5262 147.285 54.5262Z" fill="#F46F40" stroke="black" stroke-width="6" stroke-linecap="round" stroke-linejoin="round"/>
<path d="M85.1794 327.756C86.6714 326.269 88.6914 325.434 90.7971 325.434C92.9029 325.434 94.9228 326.269 96.4148 327.756V327.756C97.9068 329.243 99.9267 330.078 102.032 330.078C104.138 330.078 106.158 329.243 107.65 327.756L108.483 326.933C109.975 325.446 111.995 324.611 114.101 324.611C116.206 324.611 118.226 325.446 119.718 326.933L120.943 328.154C122.435 329.641 124.455 330.475 126.561 330.475C128.667 330.475 130.687 329.641 132.179 328.154L133.197 327.134C134.69 325.649 136.709 324.815 138.815 324.815C140.92 324.815 142.94 325.649 144.432 327.134" stroke="#070707" stroke-width="6" stroke-linecap="round" stroke-linejoin="round"/>
<path d="M133.184 327.188C134.676 325.701 136.696 324.866 138.802 324.866C140.908 324.866 142.928 325.701 144.42 327.188L145.563 328.327C147.055 329.814 149.075 330.649 151.181 330.649C153.287 330.649 155.307 329.814 156.799 328.327L157.494 327.634C158.986 326.147 161.006 325.312 163.111 325.312C165.217 325.312 167.237 326.147 168.729 327.634V327.634C170.221 329.121 172.241 329.956 174.347 329.956C176.453 329.956 178.473 329.121 179.965 327.634L180.787 326.813C182.279 325.326 184.299 324.491 186.405 324.491C188.51 324.491 190.53 325.326 192.022 326.813L193.247 328.034C194.739 329.521 196.759 330.356 198.865 330.356C200.971 330.356 202.991 329.521 204.483 328.034L205.501 327.015C206.994 325.529 209.014 324.695 211.119 324.695C213.224 324.695 215.244 325.529 216.737 327.015" stroke="#070707" stroke-width="6" stroke-linecap="round" stroke-linejoin="round"/>
<path d="M85.1794 333.915C86.6714 332.428 88.6914 331.593 90.7971 331.593C92.9029 331.593 94.9228 332.428 96.4148 333.915V333.915C97.9074 335.401 99.9272 336.235 102.032 336.235C104.138 336.235 106.158 335.401 107.65 333.915L108.473 333.092C109.965 331.606 111.985 330.772 114.09 330.772C116.196 330.772 118.215 331.606 119.708 333.092L120.933 334.315C122.425 335.802 124.445 336.637 126.551 336.637C128.656 336.637 130.676 335.802 132.168 334.315L133.187 333.296C134.68 331.81 136.699 330.976 138.805 330.976C140.91 330.976 142.93 331.81 144.422 333.296" stroke="#070707" stroke-width="6" stroke-linecap="round" stroke-linejoin="round"/>
<path d="M133.184 333.337C134.676 331.85 136.696 331.015 138.802 331.015C140.908 331.015 142.928 331.85 144.42 333.337L145.563 334.476C147.055 335.963 149.075 336.798 151.181 336.798C153.287 336.798 155.307 335.963 156.799 334.476L157.494 333.783C158.986 332.296 161.006 331.461 163.111 331.461C165.217 331.461 167.237 332.296 168.729 333.783V333.783C170.222 335.268 172.241 336.102 174.347 336.102C176.452 336.102 178.472 335.268 179.965 333.783L180.787 332.959C182.28 331.474 184.299 330.64 186.405 330.64C188.51 330.64 190.53 331.474 192.022 332.959L193.247 334.183C194.739 335.67 196.759 336.504 198.865 336.504C200.971 336.504 202.991 335.67 204.483 334.183L205.501 333.163C206.994 331.678 209.014 330.844 211.119 330.844C213.224 330.844 215.244 331.678 216.737 333.163" stroke="#070707" stroke-width="6" stroke-linecap="round" stroke-linejoin="round"/>
<path d="M422.551 107.732C424.246 107.732 425.62 106.358 425.62 104.662C425.62 102.966 424.246 101.591 422.551 101.591C420.856 101.591 419.482 102.966 419.482 104.662C419.482 106.358 420.856 107.732 422.551 107.732Z" stroke="#070707" stroke-width="6" stroke-linecap="round" stroke-linejoin="round"/>
<path d="M410.226 98.4086C412.646 98.4086 414.608 96.4452 414.608 94.0232C414.608 91.6012 412.646 89.6378 410.226 89.6378C407.805 89.6378 405.843 91.6012 405.843 94.0232C405.843 96.4452 407.805 98.4086 410.226 98.4086Z" fill="#EFAF00" stroke="black" stroke-width="6" stroke-linecap="round" stroke-linejoin="round"/>
<path d="M464.877 202.477C481.362 202.477 494.725 189.105 494.725 172.609C494.725 156.114 481.362 142.742 464.877 142.742C448.393 142.742 435.029 156.114 435.029 172.609C435.029 189.105 448.393 202.477 464.877 202.477Z" fill="#1C0E0C"/>
<path d="M464.877 199.475C481.362 199.475 494.725 186.103 494.725 169.608C494.725 153.112 481.362 139.74 464.877 139.74C448.393 139.74 435.029 153.112 435.029 169.608C435.029 186.103 448.393 199.475 464.877 199.475Z" fill="#F4F1ED" stroke="#070707" stroke-width="6" stroke-linecap="round" stroke-linejoin="round"/>
<path d="M470.454 186.138H453.362L456.308 162.047H473.401L470.454 186.138Z" fill="#F4F1ED"/>
<path d="M477.977 186.138H470.464L473.413 162.047H475.03L477.977 186.138Z" fill="#FFBF00"/>
<path d="M476.747 185.845H469.349L472.433 160.641H473.665L476.747 185.845Z" stroke="#070707" stroke-width="6" stroke-linecap="round" stroke-linejoin="round"/>
<path d="M472.433 160.641L469.349 185.845H451.775L454.857 160.641H472.433Z" stroke="#070707" stroke-width="6" stroke-linecap="round" stroke-linejoin="round"/>
<path d="M465.226 153.08H466.441C466.811 153.08 467.178 153.153 467.52 153.295C467.862 153.437 468.172 153.644 468.434 153.906C468.696 154.168 468.904 154.479 469.045 154.821C469.187 155.164 469.26 155.53 469.26 155.901V160.653H462.407V155.901C462.407 155.153 462.704 154.435 463.233 153.906C463.761 153.377 464.478 153.08 465.226 153.08Z" stroke="#070707" stroke-width="6" stroke-linecap="round" stroke-linejoin="round"/>
<path d="M463.217 153.08H464.432C464.802 153.08 465.168 153.153 465.51 153.295C465.852 153.437 466.163 153.644 466.425 153.906C466.687 154.168 466.894 154.479 467.036 154.821C467.178 155.164 467.251 155.53 467.251 155.901V160.653H460.416V155.901C460.416 155.156 460.71 154.441 461.235 153.913C461.76 153.384 462.472 153.085 463.217 153.08V153.08Z" stroke="#070707" stroke-width="6" stroke-linecap="round" stroke-linejoin="round"/>
<path d="M321.374 324.482C320.838 324.472 320.305 324.568 319.806 324.765C319.308 324.961 318.852 325.255 318.467 325.628C318.082 326.001 317.774 326.446 317.561 326.939C317.348 327.431 317.234 327.961 317.226 328.498V362.098C317.226 368.846 322.877 374.314 329.847 374.314H351.126C355.269 374.314 358.628 377.566 358.628 381.576" stroke="#070707" stroke-width="6" stroke-linecap="round" stroke-linejoin="round"/>
<path d="M308.387 324.482C308.923 324.472 309.456 324.568 309.955 324.765C310.454 324.961 310.909 325.255 311.294 325.628C311.68 326.001 311.988 326.446 312.201 326.939C312.414 327.431 312.527 327.961 312.535 328.498V362.098C312.535 368.846 306.884 374.314 299.915 374.314H278.636C274.492 374.314 271.133 377.566 271.133 381.576" stroke="#070707" stroke-width="6" stroke-linecap="round" stroke-linejoin="round"/>
<path d="M314.886 321.143C370.285 321.143 415.194 278.63 415.194 226.188C415.194 173.745 370.285 131.232 314.886 131.232C259.487 131.232 214.577 173.745 214.577 226.188C214.577 278.63 259.487 321.143 314.886 321.143Z" fill="#F4F1ED" stroke="#070707" stroke-width="6" stroke-linecap="round" stroke-linejoin="round"/>
<path d="M314.886 304.185C363.978 304.185 403.775 266.511 403.775 220.036C403.775 173.562 363.978 135.887 314.886 135.887C265.793 135.887 225.996 173.562 225.996 220.036C225.996 266.511 265.793 304.185 314.886 304.185Z" fill="#EAE5DF"/>
<path d="M375.728 271.359C376.565 271.484 377.351 271.842 377.995 272.391C378.64 272.941 379.117 273.66 379.373 274.468C379.63 275.275 379.654 276.138 379.445 276.959C379.235 277.78 378.8 278.526 378.188 279.111C362.068 294.589 339.661 304.183 314.886 304.183C290.156 304.183 267.775 294.622 251.668 279.193C251.056 278.607 250.62 277.862 250.411 277.042C250.201 276.221 250.225 275.359 250.48 274.551C250.736 273.744 251.212 273.024 251.855 272.474C252.499 271.924 253.283 271.565 254.12 271.438C272.806 268.618 293.462 267.053 315.181 267.053C336.702 267.05 357.176 268.579 375.728 271.359Z" fill="#FFFBF8" stroke="#070707" stroke-width="6" stroke-linecap="round" stroke-linejoin="round"/>
<path d="M271.266 396.934C275.506 396.934 278.944 393.495 278.944 389.252C278.944 385.008 275.506 381.569 271.266 381.569C267.026 381.569 263.588 385.008 263.588 389.252C263.588 393.495 267.026 396.934 271.266 396.934Z" stroke="#070707" stroke-width="6" stroke-linecap="round" stroke-linejoin="round"/>
<path d="M315.263 396.934C319.503 396.934 322.94 393.495 322.94 389.252C322.94 385.008 319.503 381.569 315.263 381.569C311.022 381.569 307.585 385.008 307.585 389.252C307.585 393.495 311.022 396.934 315.263 396.934Z" stroke="#070707" stroke-width="6" stroke-linecap="round" stroke-linejoin="round"/>
<path d="M358.735 396.934C362.975 396.934 366.412 393.495 366.412 389.252C366.412 385.008 362.975 381.569 358.735 381.569C354.494 381.569 351.057 385.008 351.057 389.252C351.057 393.495 354.494 396.934 358.735 396.934Z" stroke="#070707" stroke-width="6" stroke-linecap="round" stroke-linejoin="round"/>
<path d="M494.104 259.054C483.447 275.197 463.367 284.027 454.497 279.024C445.921 274.183 445.172 250.416 455.829 234.273C466.487 218.13 484.297 210.59 494.651 217.432C505.006 224.274 504.759 242.909 494.104 259.054Z" fill="#EFAF00" stroke="black" stroke-width="6" stroke-linecap="round" stroke-linejoin="round"/>
<path d="M455.682 333.411C455.682 333.411 444.948 246.29 494.573 217.827" stroke="#070707" stroke-width="6" stroke-linecap="round" stroke-linejoin="round"/>
<path d="M501.601 237.27L471.885 240.305" stroke="#070707" stroke-width="6" stroke-linecap="round" stroke-linejoin="round"/>
<path d="M501.196 240.409L470.006 243.592" stroke="#070707" stroke-width="6" stroke-linecap="round" stroke-linejoin="round"/>
<path d="M456.178 234.449L463.731 256.779" stroke="#070707" stroke-width="6" stroke-linecap="round" stroke-linejoin="round"/>
<path d="M533.502 303.553C530.206 312.059 515.77 314.391 501.255 308.762C486.739 303.133 481.137 291.944 481.776 288.231C482.576 283.547 499.706 275.546 513.185 277.959C528.503 280.701 536.789 295.047 533.502 303.553Z" fill="#EFAF00" stroke="black" stroke-width="6" stroke-linecap="round" stroke-linejoin="round"/>
<path d="M446.804 333.41C446.804 333.41 445.503 295.142 485.891 287.288C508.003 282.987 525.108 294.11 532.952 303.538" stroke="#070707" stroke-width="6" stroke-linecap="round" stroke-linejoin="round"/>
<path d="M507.965 287.887L521.757 281.562" stroke="#070707" stroke-width="6" stroke-linecap="round" stroke-linejoin="round"/>
<path d="M511.408 288.983L524.25 282.969" stroke="#070707" stroke-width="6" stroke-linecap="round" stroke-linejoin="round"/>
<path d="M502.258 286.776L507.634 310.212" stroke="#070707" stroke-width="6" stroke-linecap="round" stroke-linejoin="round"/>
<path d="M438.712 276.553C445.266 286.452 444.238 300.47 438.91 303.732C435.679 305.709 422.088 302.131 415.535 292.234C408.983 282.337 409.003 270.457 415.352 266.243C421.701 262.028 432.149 266.653 438.712 276.553Z" fill="#EFAF00" stroke="black" stroke-width="6" stroke-linecap="round" stroke-linejoin="round"/>
<path d="M441.976 333.41C441.976 333.41 445.651 283.92 415.543 266.768" stroke="#070707" stroke-width="6" stroke-linecap="round" stroke-linejoin="round"/>
<path d="M411.351 281.213H430.351" stroke="#070707" stroke-width="6" stroke-linecap="round" stroke-linejoin="round"/>
<path d="M412.309 284.5H432.228" stroke="#070707" stroke-width="6" stroke-linecap="round" stroke-linejoin="round"/>
<path d="M439.162 277.919L435.75 291.551" stroke="#070707" stroke-width="6" stroke-linecap="round" stroke-linejoin="round"/>
<path d="M476.237 341.86V376.279C476.238 377.389 476.021 378.488 475.596 379.514C475.172 380.54 474.55 381.472 473.765 382.257C472.981 383.042 472.049 383.664 471.024 384.088C469.999 384.512 468.9 384.73 467.791 384.729H433.397C432.288 384.729 431.189 384.511 430.164 384.087C429.139 383.662 428.208 383.04 427.423 382.255C426.639 381.471 426.017 380.539 425.592 379.513C425.168 378.488 424.95 377.389 424.95 376.279V341.86C424.951 339.619 425.841 337.47 427.425 335.885C429.009 334.301 431.157 333.41 433.397 333.41H467.801C468.91 333.41 470.008 333.628 471.033 334.053C472.058 334.477 472.989 335.1 473.773 335.884C474.558 336.669 475.18 337.601 475.605 338.626C476.029 339.651 476.248 340.75 476.248 341.86H476.237Z" fill="#F4F1ED" stroke="#070707" stroke-width="6" stroke-linecap="round" stroke-linejoin="round"/>
<path d="M468.055 333.41H433.129C428.612 333.41 424.95 337.075 424.95 341.595V376.544C424.95 381.064 428.612 384.729 433.129 384.729H468.055C472.573 384.729 476.235 381.064 476.235 376.544V341.595C476.235 337.075 472.573 333.41 468.055 333.41Z" stroke="#FFC3D5" stroke-width="6" stroke-miterlimit="10"/>
<path d="M476.237 341.86V376.279C476.238 377.389 476.021 378.488 475.596 379.514C475.172 380.54 474.55 381.472 473.765 382.257C472.981 383.042 472.049 383.664 471.024 384.088C469.999 384.512 468.9 384.73 467.791 384.729H433.397C432.288 384.729 431.189 384.511 430.164 384.087C429.139 383.662 428.208 383.04 427.423 382.255C426.639 381.471 426.017 380.539 425.592 379.513C425.168 378.488 424.95 377.389 424.95 376.279V341.86C424.951 339.619 425.841 337.47 427.425 335.885C429.009 334.301 431.157 333.41 433.397 333.41H467.801C468.91 333.41 470.008 333.628 471.033 334.053C472.058 334.477 472.989 335.1 473.773 335.884C474.558 336.669 475.18 337.601 475.605 338.626C476.029 339.651 476.248 340.75 476.248 341.86H476.237Z" stroke="#070707" stroke-width="6" stroke-linecap="round" stroke-linejoin="round"/>
<path d="M356.492 249.379V250.045H353.734V249.379H356.492ZM354.56 254.495V248.673C354.56 248.38 354.629 248.135 354.766 247.94C354.904 247.745 355.083 247.598 355.302 247.5C355.522 247.403 355.754 247.354 355.999 247.354C356.192 247.354 356.35 247.369 356.472 247.4C356.594 247.431 356.685 247.46 356.745 247.487L356.518 248.167C356.478 248.153 356.423 248.137 356.352 248.117C356.283 248.097 356.192 248.087 356.079 248.087C355.819 248.087 355.631 248.152 355.516 248.283C355.402 248.414 355.346 248.606 355.346 248.859V254.495H354.56ZM355.719 265.615C355.395 265.615 355.1 265.554 354.836 265.432C354.572 265.308 354.362 265.129 354.207 264.896C354.051 264.66 353.973 264.376 353.973 264.043C353.973 263.75 354.031 263.512 354.147 263.33C354.262 263.146 354.416 263.002 354.61 262.897C354.803 262.793 355.016 262.715 355.249 262.664C355.485 262.611 355.721 262.569 355.959 262.537C356.27 262.497 356.522 262.468 356.715 262.448C356.91 262.425 357.052 262.389 357.141 262.338C357.232 262.287 357.278 262.198 357.278 262.071V262.044C357.278 261.716 357.188 261.46 357.008 261.278C356.83 261.096 356.56 261.005 356.199 261.005C355.823 261.005 355.529 261.087 355.316 261.252C355.103 261.416 354.953 261.591 354.866 261.778L354.12 261.512C354.253 261.201 354.431 260.959 354.653 260.785C354.877 260.61 355.122 260.488 355.386 260.419C355.652 260.348 355.914 260.312 356.172 260.312C356.336 260.312 356.525 260.332 356.738 260.372C356.954 260.41 357.161 260.489 357.361 260.609C357.563 260.729 357.731 260.91 357.864 261.152C357.997 261.394 358.064 261.718 358.064 262.124V265.495H357.278V264.803H357.238C357.184 264.914 357.096 265.032 356.971 265.159C356.847 265.286 356.682 265.393 356.475 265.482C356.268 265.571 356.016 265.615 355.719 265.615ZM355.839 264.909C356.15 264.909 356.412 264.848 356.625 264.726C356.84 264.604 357.002 264.446 357.111 264.253C357.222 264.06 357.278 263.857 357.278 263.643V262.924C357.244 262.964 357.171 263 357.058 263.034C356.947 263.065 356.818 263.093 356.672 263.117C356.527 263.139 356.386 263.159 356.248 263.177C356.113 263.193 356.003 263.206 355.919 263.217C355.714 263.244 355.523 263.287 355.346 263.347C355.17 263.405 355.028 263.492 354.919 263.61C354.813 263.726 354.76 263.883 354.76 264.083C354.76 264.356 354.861 264.563 355.063 264.703C355.267 264.84 355.526 264.909 355.839 264.909ZM356.492 271.379V272.045H353.734V271.379H356.492ZM354.56 276.495V270.673C354.56 270.38 354.629 270.135 354.766 269.94C354.904 269.745 355.083 269.598 355.302 269.5C355.522 269.403 355.754 269.354 355.999 269.354C356.192 269.354 356.35 269.369 356.472 269.4C356.594 269.431 356.685 269.46 356.745 269.487L356.518 270.167C356.478 270.153 356.423 270.137 356.352 270.117C356.283 270.097 356.192 270.087 356.079 270.087C355.819 270.087 355.631 270.152 355.516 270.283C355.402 270.414 355.346 270.606 355.346 270.859V276.495H354.56ZM356.372 280.58C356.652 280.582 356.931 280.636 357.211 280.74C357.491 280.845 357.746 281.018 357.977 281.26C358.208 281.5 358.394 281.827 358.534 282.242C358.673 282.658 358.743 283.178 358.743 283.805C358.743 284.411 358.686 284.949 358.57 285.42C358.457 285.889 358.293 286.284 358.077 286.606C357.864 286.928 357.604 287.172 357.298 287.339C356.994 287.505 356.649 287.589 356.265 287.589C355.883 287.589 355.542 287.513 355.243 287.362C354.945 287.209 354.701 286.997 354.51 286.726C354.321 286.453 354.2 286.136 354.147 285.777H354.959C355.033 286.09 355.178 286.348 355.396 286.553C355.616 286.755 355.905 286.856 356.265 286.856C356.791 286.856 357.207 286.626 357.511 286.166C357.817 285.707 357.971 285.057 357.971 284.218H357.917C357.793 284.404 357.645 284.565 357.474 284.701C357.303 284.836 357.113 284.941 356.905 285.014C356.696 285.087 356.474 285.124 356.238 285.124C355.848 285.124 355.489 285.027 355.163 284.834C354.838 284.639 354.579 284.371 354.383 284.031C354.19 283.689 354.093 283.298 354.093 282.859C354.093 282.441 354.187 282.059 354.373 281.713C354.562 281.364 354.826 281.087 355.166 280.88C355.508 280.674 355.91 280.574 356.372 280.58ZM356.372 281.313C356.092 281.313 355.84 281.383 355.616 281.523C355.394 281.661 355.217 281.847 355.086 282.083C354.957 282.316 354.893 282.574 354.893 282.859C354.893 283.143 354.955 283.402 355.079 283.635C355.206 283.866 355.378 284.05 355.596 284.188C355.815 284.323 356.065 284.391 356.345 284.391C356.556 284.391 356.753 284.35 356.935 284.268C357.117 284.183 357.276 284.069 357.411 283.925C357.549 283.778 357.656 283.613 357.734 283.428C357.812 283.242 357.851 283.047 357.851 282.845C357.851 282.579 357.786 282.329 357.657 282.096C357.531 281.863 357.355 281.674 357.131 281.53C356.909 281.385 356.656 281.313 356.372 281.313ZM356.492 293.379V294.045H353.734V293.379H356.492ZM354.56 298.495V292.673C354.56 292.38 354.629 292.135 354.766 291.94C354.904 291.745 355.083 291.598 355.302 291.5C355.522 291.403 355.754 291.354 355.999 291.354C356.192 291.354 356.35 291.369 356.472 291.4C356.594 291.431 356.685 291.46 356.745 291.487L356.518 292.167C356.478 292.153 356.423 292.137 356.352 292.117C356.283 292.097 356.192 292.087 356.079 292.087C355.819 292.087 355.631 292.152 355.516 292.283C355.402 292.414 355.346 292.606 355.346 292.859V298.495H354.56ZM354.413 309.495L357.464 303.46V303.406H353.947V302.674H358.317V303.446L355.279 309.495H354.413Z" fill="black"/>
<path d="M193.438 153.73C210.848 153.73 224.962 139.607 224.962 122.186C224.962 104.765 210.848 90.6418 193.438 90.6418C176.028 90.6418 161.915 104.765 161.915 122.186C161.915 139.607 176.028 153.73 193.438 153.73Z" fill="#1C0E0C"/>
<path d="M193.438 149.747C210.848 149.747 224.962 135.624 224.962 118.203C224.962 100.782 210.848 86.6589 193.438 86.6589C176.028 86.6589 161.915 100.782 161.915 118.203C161.915 135.624 176.028 149.747 193.438 149.747Z" fill="#EFAF00" stroke="#070707" stroke-width="6" stroke-linecap="round" stroke-linejoin="round"/>
<path d="M184.968 127.563H206.38L210.666 113.688H180.698L184.968 127.563Z" fill="#FFBF00"/>
<path d="M169.949 107.353H174.474C175.148 107.352 175.805 107.567 176.348 107.966C176.892 108.366 177.293 108.928 177.494 109.572L182.888 127.03H204.686L205.761 131.405C205.842 131.733 205.847 132.074 205.776 132.404C205.706 132.733 205.561 133.043 205.353 133.308C205.145 133.574 204.88 133.788 204.577 133.936C204.274 134.083 203.941 134.16 203.604 134.16H183.797" stroke="#070707" stroke-width="6" stroke-linecap="round" stroke-linejoin="round"/>
<path d="M182.87 127.038H204.62L209.125 112.462H178.383L182.87 127.038Z" stroke="#070707" stroke-width="6" stroke-linecap="round" stroke-linejoin="round"/>
<path d="M196.624 127.038L201.129 112.462" stroke="#070707" stroke-width="6" stroke-linecap="round" stroke-linejoin="round"/>
<path d="M191.768 127.038L187.263 112.462" stroke="#070707" stroke-width="6" stroke-linecap="round" stroke-linejoin="round"/>
<path d="M180.489 119.276H207.019" stroke="#070707" stroke-width="6" stroke-linecap="round" stroke-linejoin="round"/>
<path d="M186.361 140.247C187.576 140.247 188.562 139.262 188.562 138.046C188.562 136.83 187.576 135.844 186.361 135.844C185.146 135.844 184.161 136.83 184.161 138.046C184.161 139.262 185.146 140.247 186.361 140.247Z" stroke="#070707" stroke-width="6" stroke-linecap="round" stroke-linejoin="round"/>
<path d="M202.354 140.247C203.569 140.247 204.554 139.262 204.554 138.046C204.554 136.83 203.569 135.844 202.354 135.844C201.139 135.844 200.154 136.83 200.154 138.046C200.154 139.262 201.139 140.247 202.354 140.247Z" stroke="#070707" stroke-width="6" stroke-linecap="round" stroke-linejoin="round"/>
<path d="M193.711 95.7942V107.06" stroke="#070707" stroke-width="6" stroke-linecap="round" stroke-linejoin="round"/>
<path d="M188.215 102.198L193.66 107.646L198.817 102.486" stroke="#070707" stroke-width="6" stroke-linecap="round" stroke-linejoin="round"/>
<path d="M603.2 145.261C629.71 145.261 651.2 123.771 651.2 97.2614C651.2 70.7518 629.71 49.2614 603.2 49.2614C576.69 49.2614 555.2 70.7518 555.2 97.2614C555.2 123.771 576.69 145.261 603.2 145.261Z" fill="#1C0E0C"/>
<path d="M603.2 139.2C629.71 139.2 651.2 117.71 651.2 91.2C651.2 64.6904 629.71 43.2 603.2 43.2C576.69 43.2 555.2 64.6904 555.2 91.2C555.2 117.71 576.69 139.2 603.2 139.2Z" fill="#F4F1ED" stroke="#070707" stroke-width="6" stroke-linecap="round" stroke-linejoin="round"/>
<path d="M590.304 105.441H622.906L629.434 84.3264H583.804L590.304 105.441Z" fill="#FFBF00"/>
<path d="M567.435 74.6888H574.327C575.355 74.6889 576.356 75.0183 577.183 75.6285C578.01 76.2388 578.621 77.098 578.924 78.0802L587.137 104.641H620.329L621.969 111.287C622.092 111.786 622.1 112.305 621.992 112.807C621.884 113.309 621.664 113.779 621.347 114.183C621.03 114.587 620.626 114.913 620.165 115.138C619.703 115.362 619.197 115.479 618.684 115.479H588.519" stroke="#070707" stroke-width="6" stroke-linecap="round" stroke-linejoin="round"/>
<path d="M587.11 104.641H620.226L627.085 82.4626H580.279L587.11 104.641Z" stroke="#070707" stroke-width="6" stroke-linecap="round" stroke-linejoin="round"/>
<path d="M608.052 104.641L614.911 82.4626" stroke="#070707" stroke-width="6" stroke-linecap="round" stroke-linejoin="round"/>
<path d="M600.657 104.641L593.799 82.4626" stroke="#070707" stroke-width="6" stroke-linecap="round" stroke-linejoin="round"/>
<path d="M583.485 92.8306H623.881" stroke="#070707" stroke-width="6" stroke-linecap="round" stroke-linejoin="round"/>
<path d="M592.426 124.741C594.275 124.741 595.775 123.241 595.775 121.392C595.775 119.542 594.275 118.043 592.426 118.043C590.576 118.043 589.077 119.542 589.077 121.392C589.077 123.241 590.576 124.741 592.426 124.741Z" stroke="#070707" stroke-width="6" stroke-linecap="round" stroke-linejoin="round"/>
<path d="M616.777 124.741C618.627 124.741 620.126 123.241 620.126 121.392C620.126 119.542 618.627 118.043 616.777 118.043C614.928 118.043 613.428 119.542 613.428 121.392C613.428 123.241 614.928 124.741 616.777 124.741Z" stroke="#070707" stroke-width="6" stroke-linecap="round" stroke-linejoin="round"/>
<path d="M603.615 57.0988V74.2433" stroke="#070707" stroke-width="6" stroke-linecap="round" stroke-linejoin="round"/>
<path d="M595.247 66.8455L603.536 75.1344L611.389 67.2819" stroke="#070707" stroke-width="6" stroke-linecap="round" stroke-linejoin="round"/>
</g>
<defs>
<clipPath id="clip0_9_2">
<rect width="668" height="432" fill="white"/>
</clipPath>
</defs>
</svg>
