<svg width="121" height="121" viewBox="0 0 121 121" fill="none" xmlns="http://www.w3.org/2000/svg">
<path d="M119.032 57.5646C117.774 56.0653 116.058 55.091 114.091 54.7268L113.167 42.1858C114.078 42.177 114.856 41.5205 115.015 40.6208L115.371 38.6C115.753 36.4338 115.22 34.2955 113.909 32.7336C112.6 31.1734 110.683 30.3138 108.511 30.3138H94.6026L95.2797 26.4747C95.4718 25.3843 95.1934 24.2955 94.5161 23.4882C93.8454 22.6889 92.837 22.2305 91.7494 22.2305H23.284C21.2594 22.2305 19.3957 23.8056 19.041 25.817L12.9836 60.1713C12.8021 61.2017 13.4901 62.1843 14.5205 62.3658C14.6315 62.3854 14.7421 62.3949 14.8516 62.3949C15.7536 62.3949 16.5531 61.7481 16.715 60.829L22.7726 26.4747C22.8125 26.2485 23.1037 26.0193 23.2838 26.0193L91.5122 26.0195L85.4903 60.1713C85.3085 61.2017 85.9965 62.1843 87.0271 62.3658C88.0563 62.5471 89.0402 61.8594 89.2217 60.829L89.6584 58.3525H112.314C112.315 58.3525 112.316 58.3525 112.317 58.3525C112.318 58.3525 112.319 58.3525 112.319 58.3525C113.885 58.3527 115.238 58.9377 116.13 59.9995C116.743 60.7304 117.101 61.6403 117.187 62.6468H110.893C109.974 62.6468 109.187 63.3069 109.028 64.2125L108.315 68.2542C108.028 69.8825 108.433 71.4959 109.427 72.6806C110.408 73.8493 111.896 74.5192 113.51 74.5192H115.294L113.824 82.8552H108.822C108.493 81.188 107.772 79.6544 106.68 78.3534C104.742 76.0438 101.891 74.7721 98.6514 74.7721C93.4571 74.7721 88.4458 78.1705 86.0998 82.8555H85.3381L87.7966 68.9124C87.9781 67.882 87.2904 66.8993 86.2598 66.7178C85.2299 66.5358 84.2467 67.224 84.0652 68.2547L81.4907 82.8557H46.4191C46.0899 81.1884 45.3693 79.6551 44.2773 78.3539C42.3394 76.0443 39.4881 74.7726 36.2485 74.7726C31.0542 74.7726 26.0429 78.171 23.6969 82.856L12.831 82.8557L13.5882 78.5616H22.1028C23.149 78.5616 23.9975 77.7135 23.9975 76.667C23.9975 75.6208 23.1493 74.7724 22.1028 74.7724H1.89464C0.848418 74.7724 0 75.6205 0 76.667C0 77.7132 0.848182 78.5616 1.89464 78.5616H9.74097L9.06389 82.4008C8.87176 83.4912 9.15015 84.58 9.82747 85.3873C10.4982 86.1865 11.5066 86.645 12.5942 86.645H22.4665C21.953 89.8588 22.7248 92.8864 24.6568 95.1885C26.5947 97.4981 29.446 98.7698 32.6856 98.7698C39.1336 98.7698 45.3024 93.5349 46.4371 87.0999C46.4638 86.9475 46.4848 86.796 46.5061 86.6448H84.8694C84.3557 89.8584 85.1275 92.886 87.0597 95.1883C88.9976 97.4979 91.8489 98.7696 95.0885 98.7696C101.536 98.7696 107.705 93.5347 108.84 87.0997C108.867 86.9473 108.888 86.7958 108.909 86.6445H115.414C116.333 86.6445 117.12 85.9845 117.28 85.0789L120.843 64.8704C121.327 62.1274 120.684 59.5327 119.032 57.5646ZM90.327 54.5642L92.5095 42.1865H109.368L110.28 54.5642H90.327ZM111.639 37.9423L111.559 38.3974H93.1773L93.9345 34.1031H108.511C109.544 34.1031 110.43 34.4817 111.006 35.1692C111.604 35.8815 111.829 36.866 111.639 37.9423ZM42.7057 86.4425C41.8757 91.1508 37.3805 94.981 32.6856 94.981C30.5856 94.981 28.7649 94.1898 27.5594 92.7534C26.3192 91.2751 25.8465 89.2678 26.2286 87.1006C27.0589 82.3923 31.5538 78.5621 36.2487 78.5621C38.3487 78.5621 40.1694 79.3533 41.3749 80.79C42.6152 82.2677 43.0878 84.2753 42.7057 86.4425ZM105.108 86.4425C104.278 91.1508 99.7832 94.981 95.0883 94.981C92.9883 94.981 91.1676 94.1898 89.9621 92.7531C88.7218 91.2749 88.2492 89.2675 88.6313 87.1004C89.4613 82.392 93.9565 78.5619 98.6514 78.5619C100.751 78.5619 102.572 79.3531 103.778 80.7897C105.018 82.2677 105.49 84.2753 105.108 86.4425ZM115.962 70.7311H113.51V70.7309C113.004 70.7309 112.596 70.5631 112.33 70.246C112.054 69.9165 111.953 69.4432 112.046 68.9131L112.483 66.4371H116.719L115.962 70.7311Z" fill="#EFAF00"/>
<path d="M37.5903 84.1137C36.9196 83.3144 35.9112 82.856 34.8234 82.856C32.7988 82.856 30.9351 84.4311 30.5803 86.4425C30.3882 87.5329 30.6666 88.6217 31.3439 89.429C32.0146 90.2282 33.023 90.6867 34.1106 90.6867C36.1352 90.6867 37.9989 89.1113 38.3536 87.1004C38.546 86.0098 38.2679 84.9212 37.5903 84.1137Z" fill="#EFAF00"/>
<path d="M99.9931 84.1137C99.3221 83.3144 98.3137 82.856 97.2264 82.856C95.2018 82.856 93.3381 84.4311 92.9836 86.4422C92.7915 87.5329 93.0694 88.6214 93.7469 89.429C94.4176 90.2282 95.426 90.6867 96.5136 90.6867C98.5382 90.6867 100.402 89.1113 100.757 87.1004C100.949 86.0098 100.671 84.9212 99.9931 84.1137Z" fill="#EFAF00"/>
<path d="M76.4223 74.7726H52.4154C51.3692 74.7726 50.5208 75.6208 50.5208 76.6672C50.5208 77.7134 51.3689 78.5619 52.4154 78.5619H76.4223C77.4685 78.5619 78.317 77.7137 78.317 76.6672C78.3167 75.6208 77.4685 74.7726 76.4223 74.7726Z" fill="#EFAF00"/>
<path d="M42.3112 66.6892H7.36156C6.31534 66.6892 5.46692 67.5374 5.46692 68.5839C5.46692 69.6301 6.31486 70.4785 7.36156 70.4785H42.3112C43.3574 70.4785 44.2058 69.6303 44.2058 68.5839C44.2058 67.5374 43.3576 66.6892 42.3112 66.6892Z" fill="#EFAF00"/>
<path d="M78.4909 59.0669L71.4767 53.0043C70.685 52.3204 69.4887 52.4071 68.8043 53.1988C68.1199 53.9905 68.2071 55.1868 68.9988 55.8712L72.1628 58.606H24.1236C23.0774 58.606 22.229 59.4542 22.229 60.5007C22.229 61.5469 23.0772 62.3953 24.1236 62.3953H70.9613L67.0536 64.9841C66.1811 65.5616 65.9426 66.7374 66.5204 67.6097C66.8849 68.1601 67.4875 68.4581 68.1015 68.4581C68.4607 68.4581 68.8242 68.356 69.146 68.1426L78.2983 62.0801C78.7927 61.753 79.1049 61.2132 79.1427 60.6214C79.1805 60.0294 78.9395 59.4542 78.4909 59.0669Z" fill="#EFAF00"/>
</svg>
