<svg width="70" height="71" viewBox="0 0 70 71" fill="none" xmlns="http://www.w3.org/2000/svg">
<path d="M35 0C15.6625 0 0 16.0845 0 35.9431C0 51.8479 10.0187 65.2816 23.9312 70.0441C25.6812 70.3586 26.3375 69.2803 26.3375 68.3367C26.3375 67.4831 26.2938 64.6526 26.2938 61.6424C17.5 63.3047 15.225 59.4408 14.525 57.419C14.1312 56.3857 12.425 53.1957 10.9375 52.3421C9.7125 51.6682 7.9625 50.0058 10.8937 49.9609C13.65 49.9159 15.6187 52.5667 16.275 53.645C19.425 59.0814 24.4563 57.5538 26.4688 56.6103C26.775 54.274 27.6938 52.7015 28.7 51.8029C20.9125 50.9044 12.775 47.8043 12.775 34.0561C12.775 30.1472 14.1313 26.9124 16.3625 24.3964C16.0125 23.4978 14.7875 19.8136 16.7125 14.8714C16.7125 14.8714 19.6438 13.9279 26.3375 18.5556C29.1375 17.7469 32.1125 17.3425 35.0875 17.3425C38.0625 17.3425 41.0375 17.7469 43.8375 18.5556C50.5313 13.883 53.4625 14.8714 53.4625 14.8714C55.3875 19.8136 54.1625 23.4978 53.8125 24.3964C56.0437 26.9124 57.4 30.1023 57.4 34.0561C57.4 47.8492 49.2188 50.9044 41.4312 51.8029C42.7 52.9262 43.7938 55.0827 43.7938 58.4524C43.7938 63.2598 43.75 67.1237 43.75 68.3367C43.75 69.2803 44.4062 70.4035 46.1562 70.0441C53.1047 67.6358 59.1427 63.0502 63.4201 56.9327C67.6975 50.8153 69.9988 43.4742 70 35.9431C70 16.0845 54.3375 0 35 0Z" fill="white"/>
</svg>
