<svg width="118" height="118" viewBox="0 0 118 118" fill="none" xmlns="http://www.w3.org/2000/svg">
<g clip-path="url(#clip0_34_155)">
<path d="M14.8644 22.4213L2.19397 59.3665L17.2956 64.5456L29.966 27.6005L14.8644 22.4213Z" fill="#EFAF00"/>
<path d="M40.9365 25.5494L39.4675 26.2718C37.6374 27.1628 35.4941 27.2832 33.5917 26.609L31.1354 25.742C30.991 25.6457 30.8465 25.5735 30.702 25.5253L15.579 20.3479C14.4472 19.9626 13.195 20.5646 12.8097 21.6964L0.118934 58.661C-0.073715 59.2148 -0.0255527 59.8169 0.215259 60.3226C0.45607 60.8283 0.913612 61.2376 1.46748 61.4303L16.5664 66.6077C16.8072 66.68 17.048 66.7281 17.2647 66.7281C18.1798 66.7281 19.0226 66.1502 19.3357 65.2592L31.304 30.4379L32.1228 30.7268C35.1329 31.7864 38.5043 31.5938 41.394 30.1971L42.863 29.4746C44.669 28.5836 46.7882 28.4632 48.6906 29.1134L76.4562 38.6736C76.1672 39.8295 75.5892 41.2021 74.5297 41.9487C73.3497 42.7674 71.5918 42.7674 69.28 41.9727L56.9023 37.7345C56.3243 37.5418 55.6982 37.59 55.1684 37.8789C54.6386 38.1679 54.2533 38.6736 54.0848 39.2516C54.0607 39.3238 52.3509 45.7294 46.8845 48.6673C43.4409 50.5215 39.1545 50.5938 34.1215 48.884C32.9897 48.4987 31.7375 49.1007 31.3522 50.2326C30.9669 51.3644 31.5689 52.6166 32.7007 53.0019C35.5905 53.9892 38.3116 54.4949 40.8401 54.4949C43.778 54.4949 46.4751 53.8447 48.9314 52.5203C53.8199 49.8954 56.3484 45.2959 57.5043 42.5507L67.8351 46.0906C71.5195 47.3669 74.6019 47.1743 76.9859 45.5127C80.8148 42.8637 81.0075 37.4936 81.0316 37.2528C81.0556 36.2896 80.4536 35.4467 79.5626 35.1337L50.0873 24.9714C47.1253 23.96 43.778 24.1768 40.9365 25.5494ZM15.9402 61.7674L4.95924 58.0108L16.2051 25.1882L27.1861 28.9448L15.9402 61.7674Z" fill="#EFAF00"/>
<path d="M84.2821 29.685L101.448 64.7657L115.787 57.7494L98.6213 22.6687L84.2821 29.685Z" fill="#EFAF00"/>
<path d="M98.7794 64.2478L93.6019 69.0159C88.9061 73.3264 83.6082 76.9627 77.8769 79.7561L50.4004 93.1934C49.1963 93.7954 47.7273 93.2897 47.1253 92.0615C46.5233 90.8575 47.029 89.3885 48.2571 88.7865L48.5943 88.618L63.6209 81.2732C64.7045 80.7434 65.1621 79.443 64.6323 78.3594C64.1025 77.2757 62.8021 76.8182 61.7185 77.348L46.6919 84.6927L39.1304 88.4012C37.9263 89.0032 36.4574 88.4975 35.8553 87.2694C35.5664 86.6915 35.5182 86.0172 35.7349 85.4152C35.9517 84.789 36.3851 84.3074 36.9631 84.0184L42.6703 81.225L58.9973 73.2301C60.081 72.7003 60.5385 71.3999 60.0087 70.3163C59.4789 69.2326 58.1786 68.7751 57.0949 69.3049L40.7438 77.3239L40.1177 77.6369L32.3154 81.4658C31.7375 81.7548 31.0632 81.803 30.4612 81.5863C29.8351 81.3695 29.3534 80.9361 29.0645 80.3581C28.4624 79.1541 28.9681 77.6851 30.1963 77.0831L32.8934 75.7586L38.4079 73.0615L39.9491 72.315L52.6158 66.1021C53.6995 65.5723 54.157 64.2719 53.6272 63.1883C53.0974 62.1046 51.7971 61.6471 50.7134 62.1768L36.9872 68.8955L30.991 71.8334C29.7869 72.4113 28.3179 71.9297 27.7159 70.7016C27.4269 70.1236 27.3788 69.4494 27.5955 68.8473C27.8122 68.2212 28.2457 67.7396 28.8236 67.4506L39.2989 62.3213C40.3826 61.7915 40.8401 60.4912 40.3104 59.4075C39.7806 58.3239 38.4802 57.8663 37.3965 58.3961L26.9212 63.5254C25.2837 64.3201 24.0556 65.7168 23.4776 67.4265C22.8997 69.1363 22.996 70.9905 23.7907 72.6281C24.2964 73.6395 25.0188 74.4823 25.8857 75.1084C24.3686 77.1072 23.9833 79.8524 25.1633 82.2605C25.958 83.898 27.3547 85.1262 29.0645 85.7041C29.7869 85.9449 30.5093 86.0653 31.2318 86.0653C31.2077 87.149 31.4244 88.2327 31.9301 89.22C33.1101 91.6281 35.5423 93.0248 38.0467 93.0248C39.0581 93.0248 40.0695 92.8081 41.0328 92.3264L42.574 91.5799C42.6462 92.3987 42.863 93.1934 43.2242 93.964C44.4041 96.3721 46.8363 97.7688 49.3408 97.7688C50.3522 97.7688 51.3636 97.552 52.3268 97.0704L79.8034 83.6331C85.92 80.6471 91.555 76.7941 96.5639 72.1946L102.705 66.5355L116.768 59.6483C117.852 59.1185 118.309 57.8182 117.779 56.7345L100.585 21.6965C100.321 21.1667 99.8871 20.7814 99.3332 20.5887C98.7794 20.3961 98.1773 20.4442 97.6716 20.685L83.3193 27.6927C82.2356 28.2224 81.7781 29.5228 82.3079 30.6065L98.7794 64.2478ZM97.6235 25.5735L112.867 56.7586L102.44 61.8638L87.1963 30.6787L97.6235 25.5735Z" fill="#EFAF00"/>
</g>
<defs>
<clipPath id="clip0_34_155">
<rect width="118" height="118" fill="white"/>
</clipPath>
</defs>
</svg>
