<svg width="399" height="432" viewBox="0 0 399 432" fill="none" xmlns="http://www.w3.org/2000/svg">
<path d="M380.429 52.25H36.38C26.6543 52.25 18.7701 60.1343 18.7701 69.86V413.91C18.7701 423.636 26.6543 431.52 36.38 431.52H380.429C390.155 431.52 398.039 423.636 398.039 413.91V69.86C398.039 60.1343 390.155 52.25 380.429 52.25Z" fill="#1C0E0C"/>
<path d="M364.662 36.29H20.6127C10.887 36.29 3.00281 44.1743 3.00281 53.9V397.95C3.00281 407.676 10.887 415.56 20.6127 415.56H364.662C374.387 415.56 382.272 407.676 382.272 397.95V53.9C382.272 44.1743 374.387 36.29 364.662 36.29Z" fill="#EFAF00" stroke="black" stroke-width="6" stroke-linecap="round" stroke-linejoin="round"/>
<path d="M333.731 189.57L283.371 232.22V346.45H115.73V232.22L65.39 189.57L103.99 141.48C115.7 131.29 133.54 129.69 146.48 129.69H257.301C283.301 129.69 289.891 134.59 296.641 139.9L333.731 189.57Z" fill="#1C0E0C"/>
<path d="M329.489 181.77L278.229 225.19V341.49H107.55V225.19L56.2999 181.77L95.6197 132.77C107.55 122.4 125.71 120.77 138.89 120.77H251.719C278.189 120.77 284.889 125.77 291.719 131.17L329.489 181.77Z" fill="#F4F1ED" stroke="#070707" stroke-width="6" stroke-linecap="round" stroke-linejoin="round"/>
<path d="M107.55 225.19V184.04" stroke="#070707" stroke-width="6" stroke-linecap="round" stroke-linejoin="round"/>
<path d="M278.191 225.58V184.43" stroke="#070707" stroke-width="6" stroke-linecap="round" stroke-linejoin="round"/>
<path d="M192.889 158.69V341.49" stroke="#070707" stroke-width="6" stroke-linecap="round" stroke-linejoin="round"/>
<path d="M245.899 120.81H207.469C207.11 120.81 206.759 120.922 206.465 121.129C206.171 121.337 205.949 121.631 205.829 121.97L192.89 158.71L179.28 122.3C179.117 121.869 178.827 121.497 178.449 121.235C178.07 120.972 177.62 120.831 177.16 120.83H139.28L157.69 105.16C161.808 101.653 167.041 99.7278 172.45 99.73H212.729C218.142 99.7262 223.378 101.651 227.499 105.16L245.899 120.81Z" fill="#F4F1ED" stroke="#070707" stroke-width="6" stroke-linecap="round" stroke-linejoin="round"/>
<path d="M165.61 105.25L178.72 120.81L163.72 142.23L139.26 120.81L158.42 104.64C158.932 104.206 159.524 103.878 160.163 103.674C160.801 103.47 161.474 103.394 162.142 103.451C162.81 103.508 163.461 103.696 164.056 104.004C164.651 104.313 165.179 104.736 165.61 105.25Z" fill="#F4F1ED" stroke="#070707" stroke-width="6" stroke-linecap="round" stroke-linejoin="round"/>
<path d="M219.579 105.25L206.459 120.81L221.459 142.23L245.92 120.81L226.759 104.64C226.248 104.208 225.657 103.881 225.019 103.678C224.381 103.475 223.71 103.399 223.043 103.456C222.376 103.512 221.727 103.7 221.132 104.008C220.538 104.316 220.01 104.738 219.579 105.25Z" fill="#F4F1ED" stroke="#070707" stroke-width="6" stroke-linecap="round" stroke-linejoin="round"/>
<path d="M218.541 187.35H252.541V219.6C252.541 221.279 251.874 222.889 250.687 224.076C249.5 225.263 247.89 225.93 246.211 225.93H224.871C223.192 225.93 221.582 225.263 220.395 224.076C219.208 222.889 218.541 221.279 218.541 219.6V187.35Z" fill="#F4F1ED" stroke="#070707" stroke-width="6" stroke-linecap="round" stroke-linejoin="round"/>
<path d="M182.45 176.23C184.731 176.23 186.58 174.381 186.58 172.1C186.58 169.819 184.731 167.97 182.45 167.97C180.169 167.97 178.32 169.819 178.32 172.1C178.32 174.381 180.169 176.23 182.45 176.23Z" fill="#1C0E0C"/>
<path d="M182.45 207.84C184.731 207.84 186.58 205.991 186.58 203.71C186.58 201.429 184.731 199.58 182.45 199.58C180.169 199.58 178.32 201.429 178.32 203.71C178.32 205.991 180.169 207.84 182.45 207.84Z" fill="#1C0E0C"/>
<path d="M182.45 239.45C184.731 239.45 186.58 237.601 186.58 235.32C186.58 233.039 184.731 231.19 182.45 231.19C180.169 231.19 178.32 233.039 178.32 235.32C178.32 237.601 180.169 239.45 182.45 239.45Z" fill="#1C0E0C"/>
<path d="M182.45 271.06C184.731 271.06 186.58 269.211 186.58 266.93C186.58 264.649 184.731 262.8 182.45 262.8C180.169 262.8 178.32 264.649 178.32 266.93C178.32 269.211 180.169 271.06 182.45 271.06Z" fill="#1C0E0C"/>
<path d="M182.45 302.67C184.731 302.67 186.58 300.821 186.58 298.54C186.58 296.259 184.731 294.41 182.45 294.41C180.169 294.41 178.32 296.259 178.32 298.54C178.32 300.821 180.169 302.67 182.45 302.67Z" fill="#1C0E0C"/>
<path d="M313.55 85.2C336.249 85.2 354.65 66.7989 354.65 44.1C354.65 21.4011 336.249 3 313.55 3C290.851 3 272.45 21.4011 272.45 44.1C272.45 66.7989 290.851 85.2 313.55 85.2Z" fill="#F4F1ED" stroke="#070707" stroke-width="6" stroke-linecap="round" stroke-linejoin="round"/>
<path d="M302.988 25.71C297.718 25.71 294.168 29.79 294.168 35.84C294.168 42.29 297.408 46.15 302.828 46.15C308.248 46.15 311.568 42.1499 311.568 35.6299C311.538 29.5299 308.258 25.71 302.988 25.71ZM302.919 42.3199C299.298 42.3199 298.758 38.22 298.758 35.79C298.758 31.79 300.238 29.54 302.919 29.54C306.329 29.54 307.039 32.88 307.039 35.7C306.989 40.11 305.618 42.34 302.888 42.34L302.919 42.3199Z" fill="#1C0E0C"/>
<path d="M325.398 40.3C320.218 40.3 316.588 44.47 316.588 50.43C316.588 56.79 319.908 60.73 325.248 60.73C330.588 60.73 333.988 56.73 333.988 50.21C333.988 44.1 330.698 40.3 325.398 40.3ZM325.338 56.9C321.718 56.9 321.178 52.81 321.178 50.38C321.178 46.38 322.698 44.12 325.338 44.12C328.748 44.12 329.448 47.47 329.448 50.28C329.448 54.49 327.988 56.9 325.338 56.9Z" fill="#1C0E0C"/>
<path d="M327.86 26.1899L304.9 60.36H300.32L323.26 26.1899H327.86Z" fill="#1C0E0C"/>
</svg>
