<svg width="70" height="71" viewBox="0 0 70 71" fill="none" xmlns="http://www.w3.org/2000/svg">
<path d="M0 5.02182C0 2.24799 2.30125 0 5.14062 0H64.8594C67.6987 0 70 2.24799 70 5.02182V65.0909C70 67.8647 67.6987 70.1127 64.8594 70.1127H5.14062C2.30125 70.1127 0 67.8647 0 65.0909V5.02182ZM21.6256 58.6931V27.0328H11.1213V58.6931H21.6256ZM16.3756 22.7078C20.0375 22.7078 22.3169 20.2801 22.3169 17.239C22.2512 14.1321 20.0419 11.7702 16.4456 11.7702C12.8494 11.7702 10.5 14.1365 10.5 17.239C10.5 20.2801 12.7794 22.7078 16.3056 22.7078H16.3756ZM37.8481 58.6931V41.0115C37.8481 40.065 37.9181 39.1185 38.1981 38.4437C38.955 36.555 40.6831 34.5962 43.5881 34.5962C47.39 34.5962 48.9081 37.4972 48.9081 41.7565V58.6931H59.4125V40.5339C59.4125 30.8058 54.2325 26.2835 47.32 26.2835C41.7462 26.2835 39.2481 29.3509 37.8481 31.5113V31.6208H37.7781C37.8014 31.5842 37.8247 31.5477 37.8481 31.5113V27.0328H27.3481C27.4794 30.0039 27.3481 58.6931 27.3481 58.6931H37.8481Z" fill="white"/>
</svg>
