<svg width="82" height="98" viewBox="0 0 82 98" fill="none" xmlns="http://www.w3.org/2000/svg">
<path d="M81.8947 25.127C81.8446 22.4922 81.7968 20.0033 81.7968 17.5953C81.7968 15.7089 80.2679 14.1795 78.381 14.1795C63.7727 14.1795 52.6504 9.98127 43.3795 0.967186C42.0532 -0.322623 39.9427 -0.322168 38.6169 0.967186C29.3469 9.98127 18.2264 14.1795 3.61901 14.1795C1.73258 14.1795 0.203207 15.7089 0.203207 17.5953C0.203207 20.0037 0.155841 22.4936 0.105287 25.1288C-0.362907 49.6479 -1.00416 83.228 39.8794 97.3991C40.2419 97.5248 40.62 97.5876 40.998 97.5876C41.376 97.5876 41.7545 97.5248 42.1165 97.3991C83.0033 83.2276 82.3629 49.6465 81.8947 25.127ZM40.9984 90.547C5.93539 77.8096 6.46552 49.9071 6.93599 25.259C6.96423 23.7798 6.99155 22.346 7.01068 20.9406C20.6921 20.3631 31.6327 16.2172 40.9984 8.0584C50.365 16.2172 61.3074 20.3635 74.9898 20.9406C75.0089 22.3456 75.0363 23.7784 75.0645 25.2568C75.5345 49.9057 76.0642 77.8092 40.9984 90.547Z" fill="#EFAF00"/>
<path d="M52.7612 36.9279L36.2747 53.4135L29.2395 46.3783C27.9055 45.0447 25.7426 45.0447 24.4091 46.3783C23.0751 47.7127 23.0751 49.8752 24.4091 51.2091L33.8595 60.6595C34.5262 61.3263 35.4007 61.6597 36.2747 61.6597C37.1487 61.6597 38.0231 61.3263 38.6899 60.6595L57.5911 41.7587C58.9256 40.4248 58.9256 38.2619 57.5916 36.9283C56.258 35.5943 54.0952 35.5939 52.7612 36.9279Z" fill="#EFAF00"/>
</svg>
